<?xml version="1.0" standalone="no"?>
<!DOCTYPE svg PUBLIC "-//W3C//DTD SVG 20010904//EN"
 "http://www.w3.org/TR/2001/REC-SVG-20010904/DTD/svg10.dtd">
<svg version="1.0" xmlns="http://www.w3.org/2000/svg"
 width="400.000000pt" height="400.000000pt" viewBox="0 0 400.000000 400.000000"
 preserveAspectRatio="xMidYMid meet">
<metadata>
Created by potrace 1.11, written by Peter Selinger 2001-2013
</metadata>
<g transform="translate(0.000000,400.000000) scale(0.100000,-0.100000)"
fill="#000000" stroke="none">
<path d="M2 3123 c2 -696 6 -877 15 -875 7 1 13 -5 13 -13 0 -8 -6 -12 -14 -9
-13 5 -15 -30 -16 -229 0 -152 3 -238 10 -242 5 -3 10 -11 10 -16 0 -6 -5 -7
-10 -4 -7 4 -10 -37 -9 -120 2 -101 5 -125 15 -121 8 3 14 -1 14 -8 0 -8 -7
-16 -15 -20 -12 -4 -15 -24 -15 -87 0 -68 2 -80 14 -70 11 9 15 8 20 -6 4 -10
2 -19 -3 -21 -6 -2 -9 -7 -6 -12 3 -4 -2 -13 -10 -20 -11 -9 -15 -35 -15 -107
0 -86 2 -95 18 -89 14 5 13 3 -3 -10 -19 -14 -19 -16 -2 -25 9 -6 15 -15 12
-20 -4 -5 -11 -7 -16 -4 -15 10 -10 -29 7 -53 19 -27 34 -28 34 -3 0 16 18 31
36 31 10 0 3 -29 -9 -33 -6 -2 -9 -8 -5 -12 4 -4 30 -2 58 5 40 10 48 15 40
25 -19 23 22 35 122 39 128 5 122 4 144 23 57 53 179 71 244 38 16 -8 40 -15
54 -15 23 0 25 3 20 30 -5 24 -3 30 10 30 12 0 15 -6 10 -25 -8 -34 10 -33 68
4 36 23 58 30 95 29 67 -1 236 22 248 34 7 7 1 8 -15 4 -21 -6 -22 -5 -7 4 9
6 17 17 17 24 0 7 11 18 25 24 26 12 30 7 26 -26 -1 -8 9 -6 30 7 18 11 36 18
40 15 4 -2 10 0 14 6 3 5 27 10 53 10 26 0 56 7 66 15 22 17 57 20 71 6 6 -5
30 -12 54 -16 39 -7 43 -5 37 10 -5 15 -4 16 8 6 11 -10 15 -8 19 6 4 15 5 15
6 1 2 -26 40 -10 62 26 13 21 19 25 19 14 0 -24 16 -23 104 7 41 14 85 25 98
25 13 0 33 7 45 15 19 13 20 18 10 47 -17 46 -47 78 -73 78 -13 0 -26 5 -29
10 -6 9 87 5 121 -5 7 -2 31 2 55 9 43 13 56 34 38 61 -5 6 5 10 22 10 31 0
40 -21 12 -28 -16 -4 -16 -5 1 -6 17 -1 18 -7 12 -72 -5 -42 -14 -78 -22 -87
-12 -11 -13 -17 -3 -22 6 -4 8 -13 5 -19 -4 -6 -12 -9 -17 -6 -5 4 -9 0 -9 -9
0 -8 6 -16 12 -19 10 -3 10 -7 -1 -20 -10 -12 -11 -21 -3 -30 11 -13 5 -57 -7
-57 -4 0 -7 -19 -5 -42 3 -57 3 -57 19 -28 8 14 14 21 14 15 0 -5 -6 -21 -14
-35 -16 -29 -20 -84 -5 -75 5 3 10 2 10 -4 0 -5 -5 -11 -11 -13 -7 -2 -12 -15
-13 -28 -1 -14 -5 -30 -9 -37 -4 -6 -3 -14 3 -18 5 -3 10 -15 10 -26 0 -10 5
-19 11 -19 5 0 8 -4 4 -9 -3 -5 -1 -12 5 -16 6 -3 14 4 19 17 9 21 10 21 10
-9 1 -18 -3 -33 -9 -33 -5 0 -10 -4 -10 -10 0 -5 7 -10 15 -10 8 0 15 -5 15
-11 0 -6 -7 -9 -15 -5 -13 5 -13 1 0 -29 15 -38 15 -37 15 -61 0 -8 5 -12 10
-9 8 5 7 11 -1 21 -9 11 -7 14 10 14 11 0 21 -5 21 -11 0 -7 9 -9 23 -6 22 6
22 6 2 -11 -11 -9 -25 -28 -32 -42 -6 -14 -12 -20 -12 -13 -1 7 -12 1 -26 -12
-32 -33 -112 -36 -138 -5 -21 25 -68 26 -98 1 -23 -18 -24 -18 -56 6 -55 42
-98 32 -129 -30 -12 -22 -20 -28 -37 -23 -11 3 -41 -4 -66 -15 -30 -13 -71
-21 -116 -23 -52 -1 -80 -7 -105 -23 -19 -12 -95 -45 -168 -74 -87 -34 -150
-65 -179 -90 -25 -20 -60 -40 -77 -43 -39 -7 -64 -32 -118 -114 -23 -35 -65
-85 -95 -112 -29 -27 -53 -51 -53 -54 0 -3 743 -6 1650 -6 l1650 0 0 464 0
465 -27 15 c-35 19 -91 45 -121 57 -20 8 -21 7 -12 -10 5 -11 25 -30 42 -42
59 -40 79 -62 66 -70 -7 -4 -18 -3 -25 3 -10 8 -13 6 -13 -6 0 -26 -17 -19
-28 12 -6 15 -11 21 -11 15 -1 -7 -5 -13 -11 -13 -5 0 -7 8 -3 18 5 14 3 13
-10 -3 -10 -12 -16 -15 -17 -7 0 7 -5 10 -11 6 -6 -3 -9 -15 -6 -25 3 -11 3
-19 -1 -19 -11 0 -62 64 -62 78 0 7 -12 34 -27 60 -20 33 -29 42 -31 29 -2 -9
-16 -20 -30 -23 -47 -9 -90 -32 -130 -69 -22 -19 -50 -35 -63 -35 -26 -1 -93
-55 -84 -69 6 -11 -19 -21 -53 -21 -19 0 -23 3 -14 9 8 5 -7 6 -36 3 -66 -6
-133 30 -213 115 -48 52 -62 62 -77 54 -11 -6 -24 -6 -35 0 -20 12 -21 8 -5
-25 11 -25 41 -42 65 -38 15 3 26 -15 13 -23 -5 -3 -10 -1 -10 5 0 6 -10 4
-25 -6 -14 -9 -25 -12 -25 -8 -1 5 -9 -1 -20 -14 -17 -20 -19 -21 -23 -5 -3
14 -7 10 -17 -14 -6 -18 -16 -30 -22 -27 -5 3 -7 12 -4 20 5 12 2 12 -17 3
-21 -11 -21 -10 3 17 14 16 17 22 8 15 -10 -7 -30 -11 -44 -8 -16 3 -27 0 -31
-9 -3 -8 -12 -14 -21 -14 -12 0 -13 3 -4 12 7 7 12 19 12 27 0 12 -3 12 -12 3
-7 -7 -21 -12 -32 -12 -11 0 -28 -7 -38 -17 -11 -9 -18 -11 -18 -5 0 16 -33
15 -48 0 -10 -10 -12 -7 -9 12 3 18 19 34 58 57 59 36 112 90 102 106 -4 6
-10 4 -17 -5 -6 -8 -17 -13 -23 -11 -7 3 -23 -7 -36 -21 -14 -14 -28 -26 -33
-26 -5 0 -24 -14 -42 -31 -18 -17 -45 -37 -60 -45 l-27 -14 39 0 c22 0 36 -3
32 -7 -4 -4 -15 -8 -24 -8 -19 0 -23 -29 -11 -84 6 -25 5 -31 -4 -22 -19 19
-27 12 -17 -14 7 -19 6 -23 -5 -19 -11 5 -12 0 -5 -25 5 -17 5 -31 0 -31 -13
0 -21 -33 -10 -44 5 -5 10 -19 10 -31 -1 -20 -1 -20 -13 1 -9 16 -17 19 -32
13 -35 -14 -49 -11 -35 6 15 18 10 18 -25 5 -23 -9 -26 -8 -21 5 3 8 1 15 -4
15 -6 0 -10 -8 -10 -17 0 -13 -3 -14 -12 -5 -10 10 -15 7 -26 -10 -9 -16 -12
-17 -8 -4 5 13 2 17 -9 13 -8 -4 -17 -2 -21 4 -3 6 -13 8 -22 4 -12 -4 -12 -1
4 16 18 21 18 22 1 16 -24 -9 -44 2 -26 14 7 4 10 12 5 16 -4 4 -14 -1 -22
-11 -10 -14 -14 -16 -14 -5 0 24 17 42 30 34 9 -5 11 -4 6 3 -4 7 -14 12 -22
12 -8 0 -14 5 -14 11 0 5 -6 7 -12 3 -9 -5 -8 -2 1 9 8 10 11 20 7 24 -3 3 -6
1 -6 -5 0 -7 -4 -12 -10 -12 -5 0 -9 3 -9 8 1 4 1 21 0 37 l-2 30 -13 -30
c-12 -26 -15 -28 -21 -12 -4 10 -3 23 2 28 7 7 7 24 2 47 -8 32 -21 148 -22
192 -1 8 3 54 7 102 5 61 4 88 -4 88 -6 0 -5 9 4 23 18 28 27 100 30 239 2 93
0 108 -13 103 -12 -5 -11 -2 2 13 10 11 17 23 16 28 -1 5 0 14 1 19 1 6 3 15
4 20 1 6 10 35 19 65 10 30 22 87 28 125 6 39 18 86 26 105 8 19 16 60 18 90
2 30 8 75 14 100 15 65 14 75 -4 60 -18 -15 -18 -15 -1 35 9 25 11 44 5 51 -6
7 -6 22 1 38 6 17 6 26 0 26 -10 0 -4 43 8 65 3 5 7 23 9 40 4 34 30 95 41 95
11 0 105 141 98 147 -6 6 58 63 71 63 6 0 20 9 33 20 13 11 32 20 43 20 16 0
17 2 6 16 -11 13 -9 14 13 9 18 -5 27 -2 31 9 4 9 15 16 26 16 13 0 21 8 23
22 2 13 11 24 23 26 l20 4 -20 -17 -20 -16 20 5 c11 2 35 7 53 11 18 4 30 11
26 16 -3 5 -15 7 -27 4 -18 -5 -19 -4 -6 4 9 6 26 9 38 6 12 -2 19 0 16 5 -3
5 -1 11 4 14 5 4 12 2 16 -4 4 -6 12 -4 22 5 9 9 23 13 34 10 14 -5 17 -2 13
9 -4 11 0 13 15 9 13 -3 21 -1 21 7 0 10 3 10 15 0 12 -10 15 -10 15 3 0 18
32 15 59 -5 14 -12 15 -11 2 5 -12 15 -11 17 3 17 11 0 14 4 10 13 -5 8 -2 8
9 -2 9 -7 17 -10 17 -5 0 4 7 -1 15 -12 13 -18 14 -18 8 5 -4 17 -3 22 5 17 7
-4 12 -14 12 -22 0 -8 5 -12 10 -9 6 3 13 -1 16 -9 6 -15 29 -17 50 -3 14 8
24 -1 24 -24 0 -16 4 -17 25 -9 15 6 26 6 30 -1 4 -5 11 -7 16 -4 5 4 9 3 9
-2 0 -4 48 -9 106 -9 148 -2 284 -23 284 -44 0 -4 16 -15 35 -26 19 -10 35
-22 35 -26 0 -5 5 -8 11 -8 12 0 71 -52 141 -125 l48 -50 0 663 0 662 -364 0
c-274 -1 -366 -4 -370 -13 -3 -9 -5 -9 -5 1 -1 6 -6 12 -12 12 -7 0 -9 -10 -7
-24 3 -17 -2 -29 -19 -41 -12 -10 -23 -22 -23 -28 0 -22 -46 -106 -57 -107 -7
0 -13 6 -13 13 -1 6 -14 -24 -30 -67 -17 -44 -39 -89 -50 -101 -12 -12 -20
-26 -19 -31 5 -27 -3 -25 -21 4 -21 34 -40 42 -40 17 0 -8 -5 -15 -11 -15 -5
0 -7 -4 -4 -10 3 -5 1 -19 -5 -31 -11 -19 -13 -19 -29 -5 -25 23 -27 21 -47
-30 l-17 -46 -17 33 -17 32 -7 -27 c-6 -24 -38 -66 -51 -66 -3 0 -5 9 -5 20 0
11 -5 20 -10 20 -6 0 -10 -8 -8 -17 2 -12 -3 -17 -14 -15 -10 2 -18 -2 -18 -8
0 -6 -4 -8 -10 -5 -6 4 -10 -5 -10 -19 0 -19 -5 -26 -19 -26 -11 0 -23 -9 -26
-21 -4 -11 -12 -18 -18 -16 -10 3 -67 -50 -67 -63 0 -13 -61 -4 -71 10 -8 13
-11 13 -20 -2 -11 -19 -29 -24 -29 -8 0 15 -40 51 -50 45 -5 -3 -12 4 -15 16
-5 14 -10 18 -14 10 -6 -9 -15 -9 -37 1 -16 6 -34 12 -40 13 -6 0 -25 16 -42
35 -17 18 -34 31 -38 28 -3 -4 -8 -25 -11 -49 -6 -38 -7 -40 -20 -24 -7 11
-13 28 -13 39 0 10 -3 17 -6 13 -4 -3 -15 4 -25 16 -15 18 -18 19 -19 6 0 -9
-7 -22 -15 -29 -12 -10 -15 -10 -15 4 0 25 -30 19 -31 -6 0 -22 -1 -22 -12 -4
-7 11 -27 34 -44 52 -18 18 -33 41 -33 51 0 15 -2 16 -10 3 -8 -12 -12 -13
-19 -2 -6 11 -10 9 -14 -7 -3 -14 -10 -19 -20 -15 -11 4 -16 -2 -19 -22 -4
-33 -27 -44 -35 -16 -6 23 -34 24 -71 3 -13 -7 -25 -11 -26 -9 -2 2 -8 12 -14
23 -11 20 -11 20 -12 0 0 -17 -6 -21 -32 -20 -29 1 -33 5 -49 49 -18 52 -29
44 -29 -22 l0 -37 -19 24 c-10 13 -25 22 -32 19 -8 -3 -18 -5 -22 -4 -5 0 -15
-10 -22 -24 -12 -22 -14 -23 -20 -7 -4 9 -13 17 -20 17 -7 0 -16 10 -19 23 -7
21 -8 21 -15 3 -7 -18 -8 -18 -14 -2 -4 9 -11 15 -16 11 -6 -3 -14 3 -20 12
-6 11 -11 13 -11 5 0 -10 -5 -8 -17 4 -17 17 -18 15 -23 -37 -4 -42 -9 -55
-23 -57 -10 -2 -17 2 -16 10 5 36 -1 49 -20 43 -15 -4 -21 0 -24 17 -3 15 -5
11 -6 -13 0 -20 -8 -42 -16 -49 -17 -14 -19 -11 -34 55 -8 37 -9 38 -11 10
l-2 -30 -10 35 c-11 34 -11 34 -19 10 -6 -20 -7 -16 -6 18 0 48 -12 71 -15 26
0 -16 -2 -33 -3 -39 -2 -5 -3 -14 -4 -19 0 -5 -9 -2 -19 7 -10 10 -22 14 -25
11 -13 -13 -37 19 -37 50 0 17 -9 49 -19 71 l-19 40 -1 -55 c-2 -74 -5 -98
-18 -111 -8 -8 -14 4 -23 40 -11 47 -13 49 -28 34 -16 -16 -17 -15 -20 6 -3
18 -9 22 -27 19 -17 -4 -25 1 -30 16 -6 19 -8 19 -12 3 -5 -18 -5 -18 -18 -1
-12 17 -13 16 -19 -4 -4 -12 -13 -22 -21 -22 -12 0 -43 64 -49 103 -1 9 -5 20
-9 23 -4 4 -8 21 -8 38 -1 29 -2 28 -10 -9 -4 -22 -8 -58 -9 -80 -1 -37 -2
-39 -15 -21 -8 11 -15 28 -15 38 0 10 -4 18 -10 18 -5 0 -10 -10 -10 -22 0
-19 -2 -20 -10 -8 -5 8 -7 22 -5 31 3 8 -7 38 -23 67 -26 48 -29 50 -40 31
-10 -16 -16 -18 -27 -9 -8 6 -19 9 -25 5 -5 -3 -10 -2 -10 4 0 6 -11 21 -25
35 -14 14 -25 38 -26 53 -1 15 -5 39 -10 53 -7 22 -8 21 -6 -10 2 -39 -16 -54
-21 -18 -5 42 -12 54 -21 39 -6 -9 -11 -10 -15 -2 -5 7 -70 11 -202 11 l-194
0 2 -877z m3103 -14 c-3 -5 1 -6 9 -3 9 3 17 -3 21 -16 10 -30 2 -33 -23 -10
-22 21 -31 57 -12 45 6 -4 8 -11 5 -16z m-35 -19 c0 -5 -2 -10 -4 -10 -3 0 -8
5 -11 10 -3 6 -1 10 4 10 6 0 11 -4 11 -10z m115 -50 c3 -5 1 -10 -4 -10 -6 0
-11 5 -11 10 0 6 2 10 4 10 3 0 8 -4 11 -10z m35 -4 c0 -3 -4 -8 -10 -11 -5
-3 -10 -1 -10 4 0 6 5 11 10 11 6 0 10 -2 10 -4z m-2730 -139 c0 -5 -4 -5 -10
-2 -5 3 -10 14 -10 23 0 15 2 15 10 2 5 -8 10 -19 10 -23z m1720 -22 c0 -8 -7
-15 -15 -15 -13 0 -14 3 -3 15 16 18 18 18 18 0z m-66 -11 c9 -8 16 -20 16
-26 0 -6 -9 -1 -20 12 -29 33 -25 44 4 14z m-224 -24 c0 -13 5 -18 15 -14 20
8 19 -5 -2 -28 -19 -21 -8 -23 27 -3 35 20 47 18 45 -7 -2 -21 -45 -39 -45
-18 0 6 -3 10 -7 10 -11 -1 -44 -70 -34 -70 5 0 11 5 13 12 3 9 6 9 11 1 13
-20 -26 -32 -131 -39 -99 -7 -102 -6 -102 14 0 11 -3 27 -6 36 -4 12 6 21 39
35 25 11 48 24 51 30 4 6 18 11 31 11 13 0 30 7 38 15 8 8 17 11 21 8 3 -4 6
-1 6 5 0 5 -6 13 -12 15 -7 3 -1 6 15 6 20 1 27 -4 27 -19z m194 5 c-4 -8 -11
-12 -16 -9 -6 4 -5 10 3 15 19 12 19 11 13 -6z m-64 -5 c0 -5 -10 -10 -22 -10
-19 0 -20 2 -8 10 19 13 30 13 30 0z m80 -24 c0 -2 -8 -10 -17 -17 -16 -13
-17 -12 -4 4 13 16 21 21 21 13z m60 0 c0 -3 -4 -8 -10 -11 -5 -3 -10 -1 -10
4 0 6 5 11 10 11 6 0 10 -2 10 -4z m-135 -48 c-19 -11 -30 -5 -21 11 4 6 14 7
22 4 15 -5 14 -7 -1 -15z m-75 -39 c0 -11 -4 -18 -10 -14 -5 3 -7 12 -3 20 7
21 13 19 13 -6z m75 11 c-3 -5 -12 -7 -20 -3 -8 3 -15 0 -15 -6 0 -6 -5 -11
-11 -11 -8 0 -8 5 1 15 13 16 55 21 45 5z m15 -50 c0 -5 -5 -10 -11 -10 -5 0
-7 5 -4 10 3 6 8 10 11 10 2 0 4 -4 4 -10z m-40 -44 c0 -8 7 -16 15 -20 8 -3
15 -12 15 -20 0 -9 -6 -13 -13 -10 -7 2 -13 -4 -14 -15 -1 -13 3 -18 11 -15
20 8 26 -19 10 -41 -14 -18 -14 -18 -14 3 0 12 -4 22 -10 22 -5 0 -10 -5 -10
-11 0 -5 -4 -7 -10 -4 -5 3 -10 2 -10 -2 0 -13 -44 -11 -52 1 -6 7 -12 6 -19
-4 -8 -12 -12 -12 -16 -2 -4 10 -8 9 -18 -4 -12 -17 -13 -17 -30 -1 -14 15
-20 15 -33 5 -12 -10 -14 -10 -8 0 5 9 -3 12 -33 12 -28 0 -43 -5 -50 -17 -6
-10 -11 -13 -11 -8 0 15 -77 18 -102 4 -18 -10 -24 -8 -35 7 -17 24 -16 34 3
34 10 0 14 -6 10 -15 -3 -8 -4 -15 -3 -15 1 0 18 5 37 11 19 6 51 13 70 14 19
2 38 4 41 4 4 1 9 9 11 19 3 12 16 18 39 20 18 2 38 7 43 12 11 11 38 1 30
-11 -3 -5 0 -9 5 -9 6 0 11 5 11 11 0 6 9 9 20 6 12 -3 18 -1 14 5 -3 5 -15 7
-26 5 -12 -3 -18 -1 -15 6 5 16 56 19 90 5 20 -8 25 -13 15 -19 -7 -4 -9 -11
-5 -15 13 -13 37 18 33 42 -3 13 0 24 5 24 5 0 9 -6 9 -14z m-309 -45 c-7 -5
-10 -14 -7 -20 8 -12 4 -14 -18 -5 -21 8 -8 34 18 34 16 0 18 -2 7 -9z m-163
-8 c-10 -2 -26 -2 -35 0 -10 3 -2 5 17 5 19 0 27 -2 18 -5z m-52 -21 c1 -7 2
-19 3 -28 1 -16 4 -15 46 2 6 3 11 -4 11 -14 0 -15 -10 -18 -66 -19 -42 -1
-56 1 -40 6 20 6 25 14 25 39 0 29 18 41 21 14z m-1386 -3 c0 -6 -6 -9 -14 -6
-7 3 -19 0 -25 -6 -13 -13 -26 -3 -16 12 8 14 55 14 55 0z m1543 -6 c-3 -7
-14 -13 -25 -13 -10 0 -17 4 -13 9 3 5 -3 11 -12 14 -10 2 -2 4 18 3 26 0 35
-4 32 -13z m-723 -84 c-11 -38 -21 -49 -27 -31 -3 8 -9 9 -16 4 -7 -5 -23 -5
-37 -1 -24 7 -24 7 -2 8 12 1 25 8 28 16 4 8 15 15 25 15 10 0 19 5 19 10 0 6
4 10 9 10 6 0 6 -12 1 -31z m430 22 c-28 -17 -85 -17 -75 -1 3 6 25 10 48 10
29 -1 37 -3 27 -9z m658 -26 c-3 -3 -9 2 -12 12 -6 14 -5 15 5 6 7 -7 10 -15
7 -18z m-1968 -13 c0 -12 -3 -12 -15 -2 -8 7 -15 13 -15 15 0 1 7 2 15 2 8 0
15 -7 15 -15z m1150 -7 c-7 -8 -17 -12 -22 -9 -6 4 -5 10 3 15 22 14 33 10 19
-6z m400 -20 c0 -10 -10 -15 -32 -14 -22 1 -26 3 -13 6 11 3 24 9 30 14 13 12
15 11 15 -6z m144 -14 c15 -23 -67 -37 -114 -19 -21 9 -22 11 -8 17 30 11 116
12 122 2z m56 3 c0 -3 -7 -12 -15 -21 -20 -19 -32 -10 -14 11 14 15 29 21 29
10z m-479 -57 c1 4 1 11 0 16 0 4 19 7 44 7 50 0 58 -14 28 -47 -10 -10 -17
-16 -15 -14 5 8 -90 28 -110 23 -9 -2 -18 -11 -20 -20 -2 -13 -9 -9 -26 15
-21 30 -21 31 -2 26 14 -4 20 0 20 10 0 26 33 26 58 0 12 -13 23 -20 23 -16z
m207 31 c-3 -7 -10 -13 -15 -13 -6 0 -14 -2 -17 -6 -3 -3 -22 -3 -43 0 l-38 5
50 12 c66 16 67 16 63 2z m-348 -30 c0 -13 -63 -43 -92 -43 -33 -1 -34 3 -10
21 10 8 12 13 5 14 -7 0 -13 4 -13 10 0 5 25 9 55 8 30 -1 55 -5 55 -10z
m-510 -34 c0 -2 -17 -4 -37 -3 -29 0 -33 2 -18 8 18 7 55 4 55 -5z m157 -2
c27 7 38 7 41 -1 5 -14 32 -14 32 0 0 5 5 7 11 3 7 -4 0 -14 -18 -25 -34 -23
-43 -24 -43 -4 0 8 -4 15 -10 15 -14 0 -13 -13 2 -28 23 -23 -1 -24 -33 -1
-18 13 -29 18 -25 11 5 -8 2 -10 -8 -6 -18 7 -22 24 -6 24 5 0 7 8 4 18 -5 15
-5 16 5 0 9 -14 17 -15 48 -6z m-122 -12 c3 -5 0 -7 -8 -5 -7 3 -29 -5 -49
-19 -20 -13 -47 -27 -59 -31 -17 -4 -20 -3 -10 3 15 11 -2 27 -19 17 -5 -3
-10 -1 -10 4 0 6 12 11 28 12 15 0 45 6 67 14 52 17 53 17 60 5z m481 3 c-10
-10 -46 -11 -46 -1 0 4 12 8 27 8 14 0 23 -3 19 -7z m-696 -18 c0 -9 -6 -12
-16 -8 -13 5 -13 7 -2 14 17 11 18 11 18 -6z m734 0 c-4 -8 -1 -15 6 -15 6 0
9 -4 6 -9 -6 -9 -56 -12 -56 -3 0 5 41 42 46 42 2 0 1 -7 -2 -15z m526 -15
c49 0 33 -6 -33 -14 -45 -5 -58 -3 -54 6 2 7 11 12 20 10 12 -2 15 2 11 15 -5
17 -5 17 9 1 8 -11 28 -18 47 -18z m-1390 10 c0 -5 -2 -10 -4 -10 -3 0 -8 5
-11 10 -3 6 -1 10 4 10 6 0 11 -4 11 -10z m590 -16 c0 -8 -7 -14 -15 -14 -8 0
-15 5 -15 11 0 5 5 7 12 3 8 -5 9 -2 5 10 -4 10 -3 15 3 11 6 -3 10 -13 10
-21z m913 6 c3 -11 4 -20 2 -20 -2 0 -10 -3 -19 -6 -11 -4 -16 -1 -16 10 0 9
5 16 11 16 5 0 7 5 4 10 -3 6 -2 10 3 10 5 0 12 -9 15 -20z m-1673 -4 c0 -3
-4 -8 -10 -11 -5 -3 -10 -1 -10 4 0 6 5 11 10 11 6 0 10 -2 10 -4z m1175 -6
c3 -5 1 -10 -4 -10 -6 0 -11 5 -11 10 0 6 2 10 4 10 3 0 8 -4 11 -10z m220 0
c4 -6 -6 -10 -24 -10 -16 0 -33 5 -36 10 -4 6 6 10 24 10 16 0 33 -4 36 -10z
m-1211 -14 c37 12 10 -21 -28 -34 -32 -10 -41 -10 -59 3 -12 8 -35 15 -52 15
-21 0 -26 3 -16 9 8 5 24 8 37 6 13 -1 24 1 24 5 0 4 17 4 38 -1 20 -4 45 -6
56 -3z m176 -3 c0 -11 -35 -31 -46 -26 -21 8 -6 28 21 29 14 1 25 -1 25 -3z
m951 -19 c17 -15 23 -16 41 -5 15 9 23 10 31 2 10 -10 -2 -16 -25 -12 -12 2
-10 -7 8 -34 13 -21 14 -27 2 -38 -12 -13 -65 -32 -79 -29 -4 1 -10 -9 -13
-21 -3 -12 -19 -28 -37 -36 -17 -7 -27 -16 -22 -20 6 -3 15 -16 22 -29 7 -13
23 -27 37 -32 13 -5 24 -17 24 -25 0 -9 -5 -13 -11 -10 -14 10 -122 23 -136
18 -8 -3 -9 -12 -3 -28 7 -20 5 -25 -10 -30 -24 -8 -60 2 -60 17 0 6 7 5 17
-3 14 -12 16 -12 12 0 -9 26 -27 23 -42 -9 -9 -17 -11 -27 -5 -24 6 4 8 -1 3
-16 -5 -15 -4 -20 4 -16 6 4 11 2 11 -4 0 -6 -8 -10 -17 -8 -10 2 -17 10 -16
19 2 8 -11 23 -28 33 -17 10 -28 24 -25 31 4 10 -4 12 -32 8 -26 -3 -33 -2
-23 5 8 6 11 17 8 25 -7 18 8 33 44 42 29 7 51 -12 29 -25 -7 -4 -8 -10 -3
-13 17 -11 35 10 28 32 -5 17 -2 21 16 21 17 0 19 3 10 14 -9 11 -6 13 16 12
16 -1 34 -5 41 -9 7 -5 11 -5 10 0 -2 4 0 8 3 8 4 0 16 8 27 18 12 11 26 16
31 12 6 -3 11 1 11 9 0 8 -13 23 -30 33 -34 19 -38 34 -14 54 10 8 14 22 11
38 -3 16 1 30 11 38 23 18 97 10 123 -13z m-735 -3 c0 -11 -4 -17 -8 -15 -10
7 -10 34 0 34 4 0 8 -9 8 -19z m-712 1 c3 -5 -1 -9 -9 -9 -8 0 -12 4 -9 9 3 4
7 8 9 8 2 0 6 -4 9 -8z m420 -7 c-4 -8 -8 -15 -10 -15 -2 0 -4 7 -4 15 0 8 4
15 10 15 5 0 7 -7 4 -15z m1481 -15 c3 -5 1 -10 -4 -10 -6 0 -11 5 -11 10 0 6
2 10 4 10 3 0 8 -4 11 -10z m-675 -10 c-19 -13 -30 -13 -30 0 0 6 10 10 23 10
18 0 19 -2 7 -10z m-1200 -10 c0 -5 -4 -10 -10 -10 -5 0 -10 5 -10 10 0 6 5
10 10 10 6 0 10 -4 10 -10z m878 -30 c2 -24 2 -24 -13 -6 -11 14 -15 16 -15 5
0 -12 -2 -12 -10 1 -5 8 -10 10 -10 5 0 -6 6 -17 13 -24 10 -11 7 -12 -18 -6
-42 9 -59 25 -44 39 8 8 13 8 16 -1 4 -10 10 -9 26 2 30 21 51 15 55 -15z
m-445 13 c-7 -2 -19 -2 -25 0 -7 3 -2 5 12 5 14 0 19 -2 13 -5z m1242 -13 c-3
-5 -10 -10 -16 -10 -5 0 -9 5 -9 10 0 6 7 10 16 10 8 0 12 -4 9 -10z m-1230
-10 c-3 -5 -14 -10 -23 -9 -14 0 -13 2 3 9 27 11 27 11 20 0z m1368 3 c3 6 6
8 6 2 0 -5 -4 -17 -10 -25 -9 -13 -11 -13 -16 -1 -4 9 -10 3 -19 -18 -7 -17
-18 -31 -25 -31 -8 0 -6 7 4 18 19 20 23 37 7 27 -5 -3 -15 -3 -21 1 -17 10
33 32 53 22 10 -5 18 -3 21 5z m47 3 c0 -3 -4 -8 -10 -11 -5 -3 -10 -1 -10 4
0 6 5 11 10 11 6 0 10 -2 10 -4z m47 -2 c-3 -3 -12 -4 -19 -1 -8 3 -5 6 6 6
11 1 17 -2 13 -5z m-1544 -21 c-7 -2 -19 -2 -25 0 -7 3 -2 5 12 5 14 0 19 -2
13 -5z m120 -21 c4 8 6 7 6 -4 1 -10 -3 -18 -9 -18 -5 0 -10 -8 -10 -17 0 -13
-3 -14 -8 -6 -6 10 -12 10 -28 -2 -22 -17 -38 -20 -29 -5 3 6 0 13 -8 16 -9 3
-13 13 -10 25 3 10 9 16 14 13 5 -3 17 -1 26 5 13 7 23 5 34 -5 14 -12 18 -13
22 -2z m437 -2 c0 -11 -4 -20 -10 -20 -5 0 -10 9 -10 20 0 11 5 20 10 20 6 0
10 -9 10 -20z m-560 -5 c-7 -9 -15 -13 -17 -11 -7 7 7 26 19 26 6 0 6 -6 -2
-15z m407 0 c0 -8 -6 -16 -14 -19 -13 -5 -18 15 -6 27 11 11 20 8 20 -8z m943
7 c0 -5 -7 -9 -15 -9 -8 0 -12 4 -9 9 3 4 9 8 15 8 5 0 9 -4 9 -8z m230 4 c0
-3 -10 -16 -22 -29 -23 -24 -86 -48 -73 -27 3 5 12 10 20 10 8 0 22 11 32 25
15 21 43 34 43 21z m-855 -26 c-3 -5 -14 -10 -23 -10 -15 0 -15 2 -2 10 20 13
33 13 25 0z m357 -3 c-20 -12 -21 -14 -6 -29 16 -15 16 -16 0 -14 -45 6 -43
56 3 56 l26 -1 -23 -12z m129 4 c-8 -5 -10 -14 -6 -22 6 -11 5 -11 -5 -2 -14
12 -6 33 13 33 8 0 7 -3 -2 -9z m-681 -14 c0 -8 -7 -14 -15 -14 -11 0 -12 4
-4 14 6 7 13 13 15 13 2 0 4 -6 4 -13z m934 -8 c-10 -4 -28 -8 -39 -8 -17 -1
-17 1 5 12 14 8 31 11 39 9 11 -4 10 -7 -5 -13z m-1654 -9 c0 -5 -2 -10 -4
-10 -3 0 -8 5 -11 10 -3 6 -1 10 4 10 6 0 11 -4 11 -10z m207 4 c-3 -4 -2 -15
4 -26 10 -18 8 -19 -13 -13 -30 10 -30 9 -22 29 3 9 13 16 22 16 8 0 12 -3 9
-6z m790 0 c-3 -3 -12 -4 -19 -1 -8 3 -5 6 6 6 11 1 17 -2 13 -5z m-917 -14
c0 -5 -5 -10 -11 -10 -5 0 -7 5 -4 10 3 6 8 10 11 10 2 0 4 -4 4 -10z m-120
-10 c0 -5 -5 -10 -11 -10 -5 0 -7 5 -4 10 3 6 8 10 11 10 2 0 4 -4 4 -10z m70
0 c0 -5 -5 -10 -11 -10 -5 0 -7 5 -4 10 3 6 8 10 11 10 2 0 4 -4 4 -10z m1499
-17 c-1 -16 -3 -21 -6 -11 -3 11 -10 15 -21 11 -14 -6 -15 -5 -2 10 22 24 30
21 29 -10z m-1706 -14 c-4 -4 -21 -5 -37 -2 l-29 6 24 13 c25 13 59 -1 42 -17z
m1057 20 c0 -15 -32 -39 -51 -39 -24 0 -25 19 -2 36 19 13 53 15 53 3z m855 1
c-3 -6 1 -13 10 -16 9 -4 14 -13 11 -20 -3 -8 -2 -14 3 -14 4 0 12 -15 18 -34
9 -28 8 -34 -3 -29 -8 3 -14 -1 -14 -11 0 -13 6 -15 28 -10 l27 6 -30 -21
c-25 -18 -27 -21 -10 -21 19 -1 19 -1 3 -14 -10 -7 -18 -19 -18 -25 0 -7 -5
-9 -10 -6 -6 4 -8 11 -5 16 4 5 4 9 1 9 -2 0 -13 3 -23 7 -17 6 -17 5 1 -15
17 -19 17 -22 2 -37 -9 -9 -21 -13 -28 -9 -7 4 -4 -2 6 -15 15 -16 17 -24 8
-33 -9 -9 -12 -8 -12 4 0 8 -11 24 -25 34 -18 13 -21 21 -12 27 7 5 1 6 -15 3
-29 -7 -34 -1 -19 23 6 10 13 10 28 3 12 -7 25 -7 34 -1 12 7 12 9 -1 9 -13 0
-13 2 0 11 12 9 12 10 -3 5 -25 -8 -97 11 -127 34 -19 15 -22 22 -13 31 9 9 9
18 -2 39 -10 20 -11 27 -2 28 7 0 29 3 50 5 20 3 37 1 37 -4 0 -5 7 -9 15 -9
8 0 15 4 15 9 0 4 16 7 35 4 26 -2 33 0 29 10 -3 9 -14 12 -30 9 -17 -3 -24 0
-24 12 0 12 9 16 36 16 21 0 33 -4 29 -10z m-1115 -9 c12 -1 12 -3 -2 -12 -18
-10 -64 -3 -73 11 -4 7 10 7 75 1z m670 -1 c0 -5 7 -7 15 -4 11 5 13 2 9 -10
-6 -15 -8 -15 -31 -1 -14 9 -27 14 -31 11 -3 -3 1 -6 9 -6 11 0 11 -2 -1 -10
-24 -15 -45 -13 -31 3 6 8 8 17 4 20 -3 4 8 7 25 7 18 0 32 -4 32 -10z m164
-11 c8 -13 25 -21 40 -21 29 0 32 -8 14 -26 -7 -7 -9 -12 -5 -12 3 0 -5 -12
-18 -26 -23 -25 -24 -28 -7 -40 14 -11 14 -13 2 -14 -33 -1 -41 -15 -26 -44 7
-15 11 -36 9 -47 -9 -32 -19 -30 -16 4 4 35 -12 68 -25 52 -4 -5 -21 -21 -37
-35 l-30 -25 30 34 c21 24 25 32 12 28 -11 -4 -16 -3 -12 4 4 6 13 8 21 5 8
-3 14 1 14 10 0 8 -13 17 -30 21 -48 9 -36 26 16 20 36 -4 44 -2 40 9 -3 8 4
18 14 24 25 13 28 52 3 43 -11 -4 -14 -3 -9 5 4 7 1 15 -8 18 -17 6 -30 34
-16 34 5 0 16 -10 24 -21z m-1289 -18 c-3 -6 -11 -11 -17 -11 -6 0 -6 6 2 15
14 17 26 13 15 -4z m525 4 c0 -9 -6 -12 -15 -9 -9 4 -15 0 -15 -9 0 -8 4 -17
9 -19 21 -7 -20 -40 -55 -44 -40 -5 -60 -22 -44 -38 13 -13 13 -29 0 -21 -5 3
-10 -3 -10 -13 0 -16 -7 -19 -40 -18 -39 1 -52 10 -27 19 17 6 5 16 -23 19
-14 2 -25 -2 -25 -9 0 -6 -3 -15 -7 -19 -8 -7 -12 25 -9 54 2 10 -2 10 -18 0
-29 -18 -36 -4 -18 34 14 28 23 25 18 -4 -3 -21 22 -3 45 32 15 22 33 40 40
40 20 0 17 -17 -3 -29 -10 -6 -13 -11 -8 -11 6 0 21 7 33 16 20 14 22 14 22 0
0 -9 -7 -16 -15 -16 -8 0 -12 -6 -9 -13 2 -7 -7 -19 -20 -27 -14 -7 -23 -17
-20 -22 3 -5 15 -1 26 8 16 16 21 16 28 4 7 -11 10 -12 10 -2 0 15 25 43 37
41 19 -3 33 2 33 11 0 6 -11 8 -25 4 -21 -5 -24 -3 -19 11 5 12 14 15 30 11
17 -5 24 -2 24 8 0 13 17 20 58 25 6 0 12 -6 12 -14z m95 -6 c-4 -5 -12 -8
-18 -6 -7 2 -18 -3 -26 -10 -7 -8 -16 -11 -19 -8 -8 8 30 34 51 35 10 0 15 -5
12 -11z m-605 -32 c0 -12 -9 -28 -21 -35 -17 -11 -20 -11 -13 0 5 7 9 21 10
31 2 25 3 27 14 27 6 0 10 -10 10 -23z m665 13 c4 -6 10 -8 15 -5 5 3 11 1 15
-5 4 -6 -6 -10 -24 -10 -17 0 -31 -4 -31 -10 0 -5 -3 -9 -7 -9 -23 4 -33 -3
-33 -23 0 -15 -3 -19 -10 -12 -16 16 11 60 33 56 10 -2 17 0 16 5 -4 24 14 33
26 13z m-932 -31 c-4 -15 0 -19 23 -19 l28 0 -22 -21 c-16 -14 -29 -18 -45
-13 -12 5 -28 7 -34 6 -10 -2 -10 4 -2 25 5 15 15 33 20 40 15 17 38 5 32 -18z
m72 12 c0 -8 -4 -16 -10 -18 -16 -5 -38 14 -30 26 9 16 40 9 40 -8z m230 -1
c3 -5 1 -10 -4 -10 -6 0 -11 5 -11 10 0 6 2 10 4 10 3 0 8 -4 11 -10z m1095 0
c0 -5 -4 -10 -10 -10 -5 0 -10 5 -10 10 0 6 5 10 10 10 6 0 10 -4 10 -10z
m-24 -27 c-7 -7 -26 7 -26 19 0 6 6 6 15 -2 9 -7 13 -15 11 -17z m-940 3 c21
-22 18 -25 -23 -22 -27 1 -39 7 -41 19 -4 22 43 24 64 3z m387 7 c-7 -2 -19
-2 -25 0 -7 3 -2 5 12 5 14 0 19 -2 13 -5z m172 -29 c17 -8 38 -20 48 -28 18
-14 24 -31 6 -21 -5 4 -18 -2 -27 -13 -9 -10 -23 -17 -29 -15 -7 3 -13 -2 -13
-10 0 -9 -3 -17 -7 -20 -5 -2 -3 -2 4 -1 6 2 18 -7 26 -19 12 -18 12 -24 1
-35 -16 -15 -25 -15 -21 -1 1 6 -4 14 -10 16 -7 3 -13 -2 -13 -11 0 -9 -4 -16
-10 -16 -5 0 -7 7 -4 15 5 11 2 13 -10 9 -8 -3 -14 -11 -13 -16 1 -6 -4 -13
-12 -15 -9 -4 -11 0 -6 16 5 15 2 21 -9 21 -9 0 -16 5 -16 10 0 7 7 7 21 0 17
-10 21 -8 26 9 3 12 8 21 12 21 3 0 12 10 20 23 13 20 13 21 -2 8 -14 -11 -20
-11 -34 0 -40 30 -52 47 -46 67 8 32 57 35 118 6z m-895 1 c0 -15 -46 -32 -57
-21 -10 9 18 36 38 36 11 0 19 -7 19 -15z m214 -26 c-9 -15 -29 -10 -41 10
-10 15 -10 21 0 24 15 5 49 -22 41 -34z m-108 0 c1 -20 -2 -26 -7 -17 -11 16
-12 48 -1 48 4 0 7 -14 8 -31z m177 7 c4 -10 1 -13 -9 -9 -7 3 -14 9 -14 14 0
14 17 10 23 -5z m358 0 c-7 -8 -21 -12 -31 -9 -27 7 -15 23 17 23 21 0 23 -3
14 -14z m475 2 c5 -8 2 -9 -11 -4 -11 4 -22 2 -26 -6 -4 -7 -11 -9 -16 -5 -8
9 15 27 34 27 6 0 15 -5 19 -12z m-1266 -18 c0 -5 -4 -10 -10 -10 -5 0 -10 5
-10 10 0 6 5 10 10 10 6 0 10 -4 10 -10z m290 6 c0 -3 -4 -8 -10 -11 -5 -3
-10 -1 -10 4 0 6 5 11 10 11 6 0 10 -2 10 -4z m1711 -29 c9 -12 20 -33 24 -47
l8 -25 -23 20 c-21 19 -22 19 -35 2 -12 -17 -8 -69 9 -95 3 -6 1 -14 -5 -18
-8 -4 -8 -9 -1 -13 7 -4 7 -12 2 -20 -7 -12 -10 -12 -22 0 -15 16 -16 25 -19
123 -2 54 1 72 14 81 9 7 14 15 10 19 -4 4 -1 4 7 1 8 -3 22 -16 31 -28z
m-1472 -17 c-15 -10 -29 -4 -29 12 0 5 7 8 15 4 8 -3 15 0 16 7 0 8 2 7 6 -2
3 -7 -1 -17 -8 -21z m279 14 c29 -2 30 -5 7 -30 -15 -16 -35 -27 -52 -27 l-28
0 29 -12 c33 -14 23 -27 -11 -14 -26 10 -48 45 -33 54 5 3 26 2 45 -4 27 -7
35 -7 32 2 -2 7 -14 11 -25 9 -14 -2 -22 2 -22 12 0 14 30 27 40 16 3 -3 11
-5 18 -6z m615 4 c-6 -7 -13 -27 -16 -44 -5 -27 -2 -32 29 -49 22 -12 33 -24
29 -33 -3 -7 -5 -21 -5 -30 0 -25 -16 -45 -29 -37 -9 5 -8 13 3 31 26 38 19
58 -19 63 -5 0 -10 -5 -11 -12 -4 -47 -2 -45 -41 -32 -20 7 -44 10 -52 7 -9
-4 5 -10 34 -17 33 -6 51 -16 53 -27 4 -22 -58 -42 -115 -35 -24 2 -42 2 -39
0 3 -3 1 -14 -5 -24 -7 -14 -6 -19 2 -19 7 0 0 -11 -15 -25 -15 -14 -32 -25
-37 -25 -6 0 -8 -4 -5 -9 3 -5 -4 -11 -17 -15 -12 -3 -24 -1 -26 5 -6 20 -30
-27 -24 -50 5 -22 4 -23 -28 -16 -19 4 -40 14 -47 23 -9 12 -15 13 -24 4 -9
-9 -7 -13 5 -18 21 -8 22 -34 2 -34 -8 0 -15 -9 -15 -20 0 -11 5 -20 11 -20 8
0 8 -5 -1 -15 -7 -8 -17 -15 -22 -15 -6 0 -8 7 -4 15 3 8 2 15 -3 15 -4 0 -7
10 -7 21 1 24 -33 36 -46 16 -5 -8 -8 -6 -8 5 0 14 -6 16 -30 12 -19 -4 -30
-2 -30 5 0 6 14 11 30 11 27 0 34 7 28 27 -5 14 -31 12 -68 -4 -30 -13 -36
-20 -32 -40 3 -14 0 -23 -8 -23 -7 0 -10 6 -7 13 3 9 -5 12 -30 9 -30 -4 -34
-2 -31 14 2 14 14 20 43 24 37 5 40 8 43 38 4 36 -13 44 -21 10 -5 -18 -8 -19
-21 -8 -9 7 -16 18 -16 24 0 6 7 2 15 -8 13 -17 15 -17 15 -3 0 9 -9 21 -20
27 -18 10 -19 13 -5 26 8 9 15 21 15 29 0 28 39 23 70 -8 26 -27 38 -32 78
-32 26 0 55 4 65 9 13 6 17 4 17 -14 0 -11 4 -19 9 -16 5 3 11 -1 14 -9 8 -19
63 -12 88 11 21 19 25 34 9 34 -5 0 -10 -6 -10 -14 0 -24 -41 -31 -57 -10 -8
11 -16 18 -18 17 -11 -6 -25 -2 -25 5 0 17 37 52 54 52 11 0 14 -4 9 -12 -10
-17 -11 -58 -1 -58 5 0 14 11 20 25 15 32 67 60 82 44 6 -7 7 -10 1 -7 -12 7
-30 -12 -30 -29 0 -24 16 -25 35 -3 15 18 19 31 14 57 -6 30 -4 33 17 34 17 1
19 3 7 6 -10 2 -31 -5 -47 -16 -41 -29 -60 -26 -25 4 16 14 32 25 36 25 4 0 5
6 2 14 -4 12 -10 12 -35 -1 -16 -8 -27 -18 -24 -23 3 -4 -1 -13 -9 -19 -11 -9
-15 -7 -19 10 -6 22 15 54 27 42 3 -4 6 -1 6 5 0 7 6 12 14 12 8 0 17 6 20 13
3 9 8 8 18 -3 7 -9 32 -22 54 -29 37 -12 45 -12 65 3 13 9 19 16 14 16 -6 0
-3 4 5 10 12 8 12 10 -3 16 -9 3 -14 10 -11 15 3 5 -2 9 -10 9 -9 0 -16 -9
-16 -20 0 -11 -4 -20 -10 -20 -5 0 -10 9 -10 20 0 13 -7 20 -19 20 -11 0 -21
9 -25 23 -6 21 -7 21 -20 5 -17 -23 -29 -23 -15 0 8 13 23 18 53 17 58 -2 63
-4 46 -16 -11 -8 -4 -9 28 -6 37 5 41 3 26 -8 -17 -12 -16 -13 4 -24 19 -10
22 -9 28 15 4 17 2 29 -6 34 -9 6 -6 10 11 13 13 2 26 5 28 6 2 0 -1 -5 -6
-11z m-1059 -32 c-21 -15 -30 -14 -19 3 3 6 14 11 23 11 13 0 13 -2 -4 -14z
m515 -17 c-16 -10 -23 -4 -14 10 3 6 11 8 17 5 6 -4 5 -9 -3 -15z m866 11 c3
-5 1 -10 -4 -10 -6 0 -11 5 -11 10 0 6 2 10 4 10 3 0 8 -4 11 -10z m-1780 -10
c-10 -16 24 -24 41 -10 23 20 40 -2 22 -29 -8 -12 -18 -18 -23 -13 -4 4 -6 -1
-2 -10 10 -28 -46 -40 -57 -12 -5 13 -2 15 13 11 15 -4 19 0 15 16 -2 11 -8
25 -14 31 -13 13 -13 26 1 26 5 0 7 -5 4 -10z m689 -33 c7 -6 6 -7 -4 -4 -8 2
-16 12 -17 23 -2 13 -1 15 4 4 3 -8 11 -19 17 -23z m1269 13 c3 -13 0 -20 -9
-20 -8 0 -14 9 -14 20 0 11 4 20 9 20 5 0 11 -9 14 -20z m-1223 0 c0 -5 -5
-10 -11 -10 -5 0 -7 5 -4 10 3 6 8 10 11 10 2 0 4 -4 4 -10z m870 0 c0 -5 -8
-10 -17 -10 -15 0 -16 2 -3 10 19 12 20 12 20 0z m-1277 -20 c22 -19 22 -37
-2 -45 -13 -4 -18 -12 -14 -22 5 -13 0 -14 -28 -9 -19 3 -28 3 -21 0 6 -3 12
-14 12 -24 0 -11 7 -19 18 -19 53 1 73 -16 38 -32 -14 -7 -26 -18 -26 -26 0
-7 -5 -13 -11 -13 -5 0 -8 4 -5 9 3 5 0 9 -7 8 -6 0 -21 1 -32 1 -18 2 -18 3
3 18 21 15 22 34 1 34 -6 0 -7 -4 -4 -10 3 -5 -1 -10 -9 -10 -9 0 -16 5 -16
10 0 6 -5 10 -11 10 -6 0 -8 -9 -4 -20 5 -17 2 -20 -22 -19 -17 1 -21 3 -10 6
9 2 17 11 17 18 0 7 3 21 7 31 6 15 1 16 -40 11 -46 -6 -66 6 -32 19 9 4 13
13 10 24 -3 9 4 29 15 43 20 25 26 27 88 24 41 -1 74 -8 85 -17z m277 10 c0
-5 -5 -10 -11 -10 -5 0 -8 -4 -5 -9 3 -4 -6 -13 -19 -19 -15 -7 -25 -8 -25 -2
0 6 -8 10 -17 10 -13 0 -14 3 -5 12 8 8 15 8 26 -1 12 -10 17 -8 26 8 11 22
30 28 30 11z m-195 -10 c3 -5 1 -10 -4 -10 -6 0 -11 5 -11 10 0 6 2 10 4 10 3
0 8 -4 11 -10z m1119 -5 c-5 -11 1 -15 19 -15 25 0 83 -39 60 -40 -7 0 -13 -4
-13 -9 0 -12 60 -20 66 -9 4 5 12 7 20 4 11 -4 12 -1 4 13 -9 17 -7 18 26 11
19 -5 44 -16 53 -25 10 -8 22 -15 27 -14 5 1 11 0 14 -1 4 -2 22 -3 93 -9 16
-1 17 -3 4 -15 -8 -9 -24 -12 -36 -9 -16 4 -20 2 -16 -10 4 -8 -1 -21 -9 -30
-12 -12 -13 -17 -3 -20 6 -3 -3 -6 -21 -6 -19 -1 -31 -5 -27 -11 9 -14 65 -13
65 2 0 6 3 8 7 4 5 -4 1 -13 -8 -20 -9 -6 -16 -23 -15 -36 1 -26 -28 -37 -30
-12 -3 26 -5 26 -20 0 -17 -33 -40 -36 -49 -8 -3 11 -11 20 -16 20 -5 0 -9 10
-8 23 l0 22 9 -22 c11 -27 25 -30 34 -7 11 30 7 42 -14 37 -11 -3 -20 0 -20 6
0 6 6 11 13 11 9 0 9 2 -1 8 -7 5 -10 16 -6 25 7 20 1 21 -28 6 -15 -8 -19 -8
-14 0 5 7 -3 11 -22 11 -22 0 -31 6 -35 21 -6 21 -27 18 -27 -4 0 -7 4 -6 10
3 13 21 12 6 -2 -25 -8 -18 -19 -25 -40 -25 -15 0 -28 5 -28 11 0 5 4 8 9 4 5
-3 13 0 16 6 4 5 13 8 19 6 9 -4 11 3 8 20 l-5 24 -31 -30 c-18 -17 -35 -31
-40 -31 -14 0 -1 54 17 72 23 24 23 42 -1 29 -13 -7 -19 -6 -19 2 0 7 -2 17
-3 22 -5 19 0 35 10 35 5 0 7 -7 4 -15z m139 0 c-3 -9 -8 -14 -10 -11 -3 3 -2
9 2 15 9 16 15 13 8 -4z m-1293 -15 c0 -5 -4 -10 -10 -10 -5 0 -10 5 -10 10 0
6 5 10 10 10 6 0 10 -4 10 -10z m245 0 c3 -5 1 -10 -4 -10 -6 0 -11 5 -11 10
0 6 2 10 4 10 3 0 8 -4 11 -10z m302 -2 c-1 -33 4 -49 13 -43 6 3 10 2 10 -4
0 -24 -21 -19 -36 10 -13 26 -14 33 -2 40 17 11 16 11 15 -3z m-490 -12 c-4
-11 -1 -13 10 -9 11 4 14 2 11 -8 -2 -8 -17 -15 -31 -17 -15 -2 -27 -7 -27
-12 0 -4 -8 -6 -19 -3 -10 3 -22 0 -25 -6 -5 -7 0 -9 11 -5 16 5 16 4 1 -5
-21 -14 -51 -3 -44 16 3 8 6 19 6 25 0 6 12 8 30 5 23 -5 30 -3 30 9 0 10 6
14 15 10 8 -3 15 -1 15 4 0 6 5 10 11 10 6 0 9 -7 6 -14z m1519 -2 c-4 -9 -1
-24 6 -33 11 -15 10 -15 -5 0 -16 13 -15 49 0 49 3 0 2 -7 -1 -16z m-302 -10
c3 -8 2 -12 -4 -9 -6 3 -10 10 -10 16 0 14 7 11 14 -7z m271 -2 c-3 -3 -11 0
-18 7 -9 10 -8 11 6 5 10 -3 15 -9 12 -12z m-928 -8 c-3 -3 -12 -4 -19 -1 -8
3 -5 6 6 6 11 1 17 -2 13 -5z m152 -30 c3 -16 1 -17 -13 -5 -13 11 -20 11 -28
3 -7 -7 -17 -12 -22 -12 -6 1 0 10 13 21 28 23 44 21 50 -7z m-699 -4 c-8 -5
-17 -7 -19 -4 -3 3 1 9 9 14 8 5 17 7 19 4 3 -3 -1 -9 -9 -14z m76 7 c8 3 14
0 14 -7 0 -15 -33 -9 -36 8 -1 7 0 8 2 3 3 -6 12 -7 20 -4z m254 -9 c0 -4 -6
-8 -14 -8 -8 0 -17 -6 -19 -12 -4 -8 -6 -7 -6 4 -1 9 -7 18 -13 21 -7 2 2 4
20 4 17 0 32 -4 32 -9z m-615 -38 c-3 -5 -10 -10 -16 -10 -5 0 -9 5 -9 10 0 6
7 10 16 10 8 0 12 -4 9 -10z m1343 -67 c-11 -15 -11 -16 5 -10 9 3 17 2 17 -2
0 -5 3 -16 6 -25 4 -11 1 -16 -11 -16 -9 0 -14 4 -11 9 3 5 -1 11 -9 15 -18 7
-20 33 -2 39 10 4 10 7 0 18 -7 7 -13 18 -13 23 0 6 7 0 16 -12 13 -19 14 -25
2 -39z m460 47 c14 0 15 -2 3 -9 -12 -8 -13 -12 -1 -25 7 -9 10 -19 6 -23 -3
-3 -6 -1 -6 6 0 7 -5 9 -12 5 -6 -4 -8 -3 -4 4 3 6 -3 13 -14 17 -11 3 -20 13
-20 22 0 10 6 13 16 9 9 -3 23 -6 32 -6z m111 -20 c0 -23 -1 -23 -9 -5 -6 13
-9 15 -9 5 -1 -13 -2 -13 -11 0 -14 22 -12 26 10 26 15 0 20 -7 19 -26z
m-1355 -13 c-10 -26 -22 -20 -16 9 3 15 8 22 14 16 5 -5 6 -16 2 -25z m-234
13 c0 -5 -4 -10 -10 -10 -5 0 -10 5 -10 10 0 6 5 10 10 10 6 0 10 -4 10 -10z
m852 -13 c-15 -7 -26 -7 -33 0 -7 7 1 10 23 10 31 1 32 0 10 -10z m282 -12
c-4 -8 -12 -15 -20 -15 -8 0 -11 6 -8 15 4 8 12 15 20 15 8 0 11 -6 8 -15z
m414 3 c-2 -4 6 -14 17 -23 19 -15 19 -15 -9 -10 -16 2 -34 10 -40 16 -8 9 -8
10 2 5 18 -11 38 4 21 16 -11 8 -11 9 -1 6 8 -2 12 -7 10 -10z m-1808 -7 c0
-5 -7 -12 -16 -15 -14 -5 -15 -4 -4 9 14 17 20 19 20 6z m350 -17 c0 -7 10
-20 22 -28 18 -13 19 -18 8 -30 -7 -9 -17 -13 -22 -10 -6 4 -14 1 -18 -6 -8
-13 -30 -6 -30 9 0 15 44 21 52 8 5 -7 8 -8 8 -1 0 6 -11 20 -25 32 -28 24
-34 55 -10 46 8 -4 15 -12 15 -20z m814 11 c-1 -5 -5 -23 -8 -40 -9 -47 4 -59
46 -42 40 17 59 8 51 -24 -4 -15 -11 -18 -27 -13 -21 6 -21 6 -1 -9 16 -12 17
-18 8 -28 -10 -10 -10 -16 0 -27 11 -13 9 -14 -10 -1 -26 16 -29 25 -10 32 6
2 -1 8 -18 11 -16 4 -37 11 -45 17 -8 5 -25 13 -37 19 -13 5 -23 16 -23 24 0
10 -6 13 -15 10 -9 -4 -15 0 -15 10 0 9 8 16 20 16 12 0 20 6 19 13 -5 27 14
48 40 45 14 -2 25 -7 25 -13z m286 -5 c0 -5 -5 -10 -11 -10 -5 0 -7 5 -4 10 3
6 8 10 11 10 2 0 4 -4 4 -10z m-400 -20 c-19 -12 -30 -12 -30 -1 0 10 31 20
40 14 2 -2 -2 -8 -10 -13z m322 5 c3 0 10 -4 15 -9 4 -5 3 -6 -3 -3 -16 9 -22
-11 -17 -50 3 -18 12 -34 22 -36 14 -4 14 -5 -2 -6 -9 0 -27 10 -38 23 -17 19
-28 24 -49 19 -15 -3 -31 0 -34 6 -4 6 0 12 8 12 9 1 22 2 28 3 7 0 19 13 26
29 8 17 18 25 25 20 7 -4 15 -8 19 -8z m-1332 -9 c0 -3 -4 -8 -10 -11 -5 -3
-10 -1 -10 4 0 6 5 11 10 11 6 0 10 -2 10 -4z m1432 -42 c-3 -74 -6 -85 -19
-80 -7 3 -13 -1 -13 -9 0 -9 6 -12 15 -9 9 4 15 0 15 -9 0 -8 7 -17 15 -21 8
-3 15 -13 15 -22 0 -10 -5 -14 -15 -10 -8 3 -26 1 -40 -4 -30 -12 -33 2 -4 22
21 13 21 13 -4 16 -16 1 -27 -5 -34 -20 -8 -19 -10 -20 -26 -4 -9 10 -17 29
-16 44 l1 27 12 -29 c14 -31 23 -25 20 12 -1 13 4 22 12 22 14 0 19 23 15 67
-1 17 2 21 14 17 11 -4 15 0 15 16 0 12 5 20 12 18 7 -3 11 -20 10 -44z
m-1259 -2 c-4 -9 -9 -8 -18 5 -7 10 -11 21 -9 25 8 12 32 -16 27 -30z m-211 6
c-7 -7 -12 -8 -12 -2 0 14 12 26 19 19 2 -3 -1 -11 -7 -17z m488 -16 c0 -7 -4
-11 -9 -8 -4 3 -16 -1 -27 -8 -25 -19 -47 -10 -32 13 13 21 68 23 68 3z m525
8 c9 -15 -15 -42 -31 -36 -24 9 -24 -12 -1 -31 19 -14 22 -23 16 -41 -5 -12
-11 -22 -13 -22 -3 0 -3 6 0 14 3 7 -6 27 -20 44 -30 35 -34 69 -8 75 31 8 51
7 57 -3z m-1278 -22 c-3 -8 -6 -5 -6 6 -1 11 2 17 5 13 3 -3 4 -12 1 -19z
m793 -8 c0 -11 -7 -20 -16 -20 -8 0 -13 -4 -10 -9 4 -5 -3 -7 -14 -4 -25 7
-25 11 -2 34 23 24 42 23 42 -1z m-528 -12 c-7 -7 -12 -8 -12 -2 0 14 12 26
19 19 2 -3 -1 -11 -7 -17z m-188 -25 c63 -5 144 -27 171 -47 33 -24 9 -30 -29
-7 -40 25 -154 46 -194 36 -25 -6 -26 -7 -9 -20 26 -19 29 -72 5 -78 -10 -3
-21 -1 -24 4 -3 5 2 9 11 9 20 0 13 28 -22 83 -29 46 -22 65 14 41 15 -9 49
-18 77 -21z m346 22 c0 -9 -7 -18 -16 -22 -18 -7 -39 11 -30 26 11 17 46 13
46 -4z m136 -16 c3 -5 -2 -9 -10 -9 -8 0 -13 -6 -11 -12 6 -17 -22 -54 -32
-43 -5 4 -2 10 5 12 6 3 12 14 12 24 0 11 -4 18 -8 15 -4 -2 -13 3 -19 12 -9
16 -7 17 23 14 19 -2 37 -8 40 -13z m99 11 c-3 -5 -12 -7 -20 -3 -21 7 -19 13
6 13 11 0 18 -4 14 -10z m525 -47 c0 -18 -4 -33 -10 -33 -9 0 -12 8 -9 26 0 4
-5 11 -13 16 -10 7 -10 11 0 15 6 2 12 12 12 21 0 15 2 15 10 2 5 -8 10 -30
10 -47z m385 47 c3 -5 -1 -10 -9 -10 -9 0 -16 5 -16 10 0 6 4 10 9 10 6 0 13
-4 16 -10z m-617 -44 c-11 -21 -15 -23 -31 -11 -16 12 -16 13 8 19 14 4 25 14
26 24 0 9 3 12 5 5 3 -6 -1 -23 -8 -37z m672 26 c-8 -3 -23 -9 -32 -13 -10 -6
-19 -5 -23 1 -4 6 -3 10 2 9 19 -3 34 2 29 10 -4 5 4 7 16 3 16 -4 18 -7 8
-10z m-1260 -2 c0 -5 -2 -10 -4 -10 -3 0 -8 5 -11 10 -3 6 -1 10 4 10 6 0 11
-4 11 -10z m985 0 c3 -5 0 -10 -7 -10 -7 -1 -2 -7 12 -15 26 -15 18 -19 -14
-6 -22 9 -31 41 -11 41 8 0 17 -4 20 -10z m495 0 c0 -5 -4 -10 -10 -10 -5 0
-10 5 -10 10 0 6 5 10 10 10 6 0 10 -4 10 -10z m-810 -10 c0 -5 -5 -10 -11
-10 -6 0 -8 -7 -5 -16 4 -12 0 -15 -16 -12 -13 2 -24 11 -26 22 -3 11 0 16 7
12 6 -4 11 -2 11 3 0 6 9 11 20 11 11 0 20 -4 20 -10z m370 6 c0 -3 -4 -8 -10
-11 -5 -3 -10 -1 -10 4 0 6 5 11 10 11 6 0 10 -2 10 -4z m-270 -51 c0 -5 -5
-3 -10 5 -5 8 -10 20 -10 25 0 6 5 3 10 -5 5 -8 10 -19 10 -25z m-786 10 c-4
-8 -11 -15 -16 -15 -6 0 -5 6 2 15 7 8 14 15 16 15 2 0 1 -7 -2 -15z m46 -6
c0 -5 -4 -9 -8 -9 -5 0 -9 7 -9 15 0 8 4 12 9 9 4 -3 8 -9 8 -15z m1051 14 c0
-5 2 -18 5 -30 5 -27 -11 -31 -21 -5 -14 31 -14 42 1 42 8 0 14 -3 15 -7z
m-1331 -7 c0 -2 -7 -6 -15 -10 -8 -3 -15 -1 -15 4 0 6 7 10 15 10 8 0 15 -2
15 -4z m776 -11 c18 -14 18 -14 1 -15 -29 0 -15 -23 16 -26 15 -1 25 1 22 6
-7 12 12 23 26 14 8 -4 7 -9 -2 -14 -10 -7 -10 -12 2 -26 12 -14 12 -18 0 -22
-11 -4 -11 -6 0 -13 10 -6 8 -9 -8 -9 -13 0 -26 0 -29 1 -4 0 -11 -5 -15 -13
-6 -8 -6 0 -3 20 7 33 -9 46 -20 16 -8 -21 -27 -8 -20 14 5 14 4 14 -4 3 -7
-10 -6 -21 4 -36 13 -20 12 -24 -10 -48 -14 -15 -33 -27 -42 -27 -14 0 -12 5
8 33 20 25 23 37 17 55 -5 13 -6 36 -3 50 4 21 0 17 -20 -17 -14 -23 -26 -47
-26 -52 0 -5 -5 -9 -11 -9 -6 0 -9 3 -7 8 2 4 16 33 31 65 29 61 53 72 93 42z
m399 5 c3 -5 1 -10 -4 -10 -6 0 -11 5 -11 10 0 6 2 10 4 10 3 0 8 -4 11 -10z
m515 -36 c0 -13 -4 -24 -10 -24 -5 0 -10 14 -10 31 0 17 4 28 10 24 6 -3 10
-17 10 -31z m-1666 18 c9 -14 -10 -33 -27 -26 -20 7 -22 20 -4 27 19 8 25 8
31 -1z m1346 -23 c0 -5 -4 -9 -8 -9 -5 0 -9 7 -9 15 0 8 4 12 9 9 4 -3 8 -9 8
-15z m-1020 -3 c0 -3 -9 -21 -21 -40 l-21 -36 21 0 c14 0 21 -6 21 -18 0 -10
4 -22 9 -27 5 -6 5 -18 0 -30 -9 -18 -9 -18 -5 3 5 25 -3 28 -24 10 -12 -11
-12 -10 -1 5 7 9 9 17 3 17 -5 0 -16 -10 -25 -22 -8 -13 -18 -19 -23 -15 -4 4
5 19 21 32 15 14 25 28 22 31 -4 4 -13 2 -20 -4 -8 -7 -16 -9 -19 -7 -3 3 -17
1 -31 -4 -19 -7 -28 -6 -36 3 -15 18 -3 46 18 46 10 0 33 14 51 30 29 26 60
39 60 26z m670 0 c0 -3 -4 -8 -10 -11 -5 -3 -10 -1 -10 4 0 6 5 11 10 11 6 0
10 -2 10 -4z m110 -20 c0 -8 -3 -16 -8 -18 -4 -1 -17 -16 -30 -32 -29 -38 -29
-12 1 31 23 35 37 42 37 19z m-140 -16 c0 -13 -7 -20 -19 -20 -17 0 -20 11
-12 38 1 1 8 2 16 2 8 0 15 -9 15 -20z m202 2 c3 -11 0 -19 -8 -19 -16 0 -16
0 -8 21 8 21 11 20 16 -2z m-1245 2 c-3 -3 -12 -4 -19 -1 -8 3 -5 6 6 6 11 1
17 -2 13 -5z m88 -12 c-3 -3 -11 0 -18 7 -9 10 -8 11 6 5 10 -3 15 -9 12 -12z
m1985 8 c12 -8 9 -10 -12 -10 -22 0 -28 -5 -28 -22 0 -12 -3 -18 -7 -14 -13
13 -9 41 7 48 21 9 23 9 40 -2z m-890 -42 l-22 -23 17 35 c10 19 20 30 22 23
3 -7 -5 -23 -17 -35z m-428 10 c-7 -7 -12 -8 -12 -2 0 14 12 26 19 19 2 -3 -1
-11 -7 -17z m517 -24 c-16 -20 -28 -17 -26 5 1 12 7 17 19 13 14 -3 16 -7 7
-18z m-269 -5 c0 -5 -4 -9 -10 -9 -5 0 -10 7 -10 16 0 8 5 12 10 9 6 -3 10
-10 10 -16z m-1043 -3 c-4 -10 -1 -13 9 -9 9 3 14 -1 14 -12 0 -9 4 -14 9 -11
13 8 42 -4 35 -15 -10 -17 -53 -9 -64 11 -6 12 -16 17 -26 13 -14 -5 -13 -2 2
15 21 26 28 28 21 8z m953 -6 c0 -13 -5 -18 -15 -14 -12 5 -13 10 -4 20 15 19
19 18 19 -6z m-336 -16 c11 -28 6 -38 -9 -18 -8 10 -15 22 -15 27 0 13 18 7
24 -9z m137 -27 c-8 -8 -11 -5 -11 9 0 27 14 41 18 19 2 -9 -1 -22 -7 -28z
m-383 -21 c9 -7 5 -14 -18 -27 -38 -24 -40 -24 -40 1 0 11 -5 20 -11 20 -5 0
-8 4 -4 9 3 5 1 12 -5 16 -6 4 -8 11 -4 16 5 8 45 -8 82 -35z m-362 -1 c2 -18
1 -18 -9 -4 -7 9 -21 19 -32 22 -13 4 -9 5 9 4 21 -1 30 -8 32 -22z m684 -14
c0 -24 -4 -28 -19 -24 -12 3 -18 14 -18 29 0 17 5 24 18 24 14 0 19 -7 19 -29z
m-460 -15 c0 -3 -4 -8 -10 -11 -5 -3 -10 -1 -10 4 0 6 5 11 10 11 6 0 10 -2
10 -4z m-110 -57 c0 -26 -12 -24 -41 7 -17 18 -19 23 -6 18 9 -3 17 -10 17
-15 0 -5 5 -9 10 -9 7 0 6 8 -1 23 -11 20 -11 21 4 8 10 -7 17 -22 17 -32z
m83 11 c-3 -11 -9 -20 -14 -20 -4 0 -7 9 -6 20 1 11 7 20 13 20 7 0 10 -8 7
-20z m1841 -193 c-3 -9 -10 -14 -15 -11 -5 3 -7 10 -4 15 4 5 0 9 -7 9 -9 0
-9 3 2 10 19 12 33 -1 24 -23z m856 -7 c0 -5 -5 -10 -11 -10 -5 0 -7 5 -4 10
3 6 8 10 11 10 2 0 4 -4 4 -10z m-290 -14 c0 -3 -4 -8 -10 -11 -5 -3 -10 -1
-10 4 0 6 5 11 10 11 6 0 10 -2 10 -4z m50 -56 c-8 -5 -26 -9 -40 -9 l-25 1
25 8 c14 4 32 8 40 9 13 1 13 0 0 -9z m461 -223 c-1 -12 -15 -9 -19 4 -3 6 1
10 8 8 6 -3 11 -8 11 -12z m-271 -16 c0 -15 13 -21 63 -32 34 -7 70 -12 80
-11 9 1 17 -2 17 -7 0 -5 21 -11 46 -14 26 -2 50 -10 53 -16 5 -7 29 -9 72 -4
90 9 124 7 156 -10 62 -33 119 -56 143 -59 22 -3 25 -8 28 -48 1 -27 -1 -40
-6 -32 -13 19 -45 3 -39 -20 4 -14 2 -16 -6 -10 -17 14 -50 18 -64 9 -7 -5
-13 -4 -13 2 0 10 -32 7 -50 -4 -6 -4 -18 -1 -26 6 -9 8 -18 9 -22 3 -10 -14
-31 -15 -52 -4 -13 7 -21 7 -25 0 -4 -6 -10 -8 -14 -6 -3 3 -36 7 -71 10 -36
4 -66 11 -68 16 -2 6 -16 3 -33 -5 -19 -10 -29 -12 -29 -4 0 6 -6 9 -12 6 -7
-2 -12 -11 -10 -18 2 -9 -2 -8 -15 4 -15 13 -22 14 -33 4 -10 -9 -11 -9 -6 1
9 15 1 15 -25 1 -22 -11 -62 -3 -53 12 3 5 11 6 17 3 7 -4 8 -3 4 2 -5 5 -13
10 -18 10 -5 1 -14 2 -19 3 -7 1 -7 7 -1 20 8 14 7 20 -5 25 -9 4 -18 -2 -24
-17 -6 -16 -9 -17 -9 -5 -1 9 -9 19 -18 21 -14 4 -13 5 4 6 12 0 24 5 28 10 9
15 -14 24 -29 12 -11 -9 -13 -5 -10 21 2 17 9 35 14 38 6 4 12 23 13 44 3 38
18 56 50 56 10 0 17 -7 17 -19z m-692 -56 c-3 -3 -9 2 -12 12 -6 14 -5 15 5 6
7 -7 10 -15 7 -18z m578 -80 c-6 -17 -26 -12 -26 6 0 6 5 7 10 4 6 -3 10 -1
10 6 0 7 3 10 6 6 4 -3 4 -13 0 -22z m-11 -44 c-3 -6 -11 -11 -17 -11 -6 0 -6
6 2 15 14 17 26 13 15 -4z m315 -76 c-7 -9 -15 -13 -17 -11 -7 7 7 26 19 26 6
0 6 -6 -2 -15z m-144 -21 c-4 -9 -9 -15 -11 -12 -3 3 -3 13 1 22 4 9 9 15 11
12 3 -3 3 -13 -1 -22z m-199 -166 c-3 -8 -6 -5 -6 6 -1 11 2 17 5 13 3 -3 4
-12 1 -19z"/>
<path d="M1826 2584 c-9 -8 -16 -17 -16 -19 0 -9 44 13 48 23 5 17 -14 15 -32
-4z"/>
<path d="M1921 2576 l-22 -24 48 -7 c31 -4 49 -3 51 4 2 6 7 9 11 7 4 -3 8 4
8 15 1 15 -3 18 -23 13 -14 -4 -24 -2 -24 5 0 19 -25 12 -49 -13z"/>
<path d="M1358 2373 c7 -3 16 -2 19 1 4 3 -2 6 -13 5 -11 0 -14 -3 -6 -6z"/>
<path d="M1421 2104 c0 -11 3 -14 6 -6 3 7 2 16 -1 19 -3 4 -6 -2 -5 -13z"/>
<path d="M1450 2099 c0 -5 5 -7 10 -4 6 3 10 8 10 11 0 2 -4 4 -10 4 -5 0 -10
-5 -10 -11z"/>
<path d="M1378 2032 c-21 -2 -38 -8 -38 -13 0 -6 -4 -7 -10 -4 -5 3 -10 1 -10
-6 0 -10 -3 -10 -11 -2 -6 6 -18 9 -26 6 -10 -4 -6 -10 14 -20 21 -11 33 -12
51 -4 12 6 31 11 41 11 20 0 47 26 34 32 -4 2 -25 2 -45 0z"/>
<path d="M1166 1986 c3 -8 12 -17 20 -20 11 -4 12 -2 1 14 -14 23 -29 27 -21
6z"/>
<path d="M517 2113 c-4 -3 -7 -11 -7 -17 0 -6 5 -5 12 2 6 6 9 14 7 17 -3 3
-9 2 -12 -2z"/>
<path d="M1820 1971 c0 -5 7 -11 15 -15 9 -3 15 0 15 9 0 8 -7 15 -15 15 -8 0
-15 -4 -15 -9z"/>
<path d="M1940 1900 c0 -5 4 -10 9 -10 6 0 13 5 16 10 3 6 -1 10 -9 10 -9 0
-16 -4 -16 -10z"/>
<path d="M783 1876 c-9 -11 -8 -15 8 -19 14 -4 19 0 19 14 0 22 -10 24 -27 5z"/>
<path d="M1140 1880 c0 -5 5 -10 11 -10 5 0 7 5 4 10 -3 6 -8 10 -11 10 -2 0
-4 -4 -4 -10z"/>
<path d="M1490 1769 c0 -5 5 -7 10 -4 6 3 10 8 10 11 0 2 -4 4 -10 4 -5 0 -10
-5 -10 -11z"/>
<path d="M1208 1523 c7 -3 16 -2 19 1 4 3 -2 6 -13 5 -11 0 -14 -3 -6 -6z"/>
<path d="M1100 1480 c0 -6 -4 -8 -10 -5 -5 3 -18 1 -27 -4 -15 -8 -11 -10 20
-11 35 0 48 12 27 25 -5 3 -10 1 -10 -5z"/>
<path d="M315 1740 c-3 -5 1 -10 9 -10 8 0 18 5 21 10 3 6 -1 10 -9 10 -8 0
-18 -4 -21 -10z"/>
<path d="M1637 1688 c-7 -25 -3 -33 12 -23 13 8 15 45 2 45 -5 0 -11 -10 -14
-22z"/>
<path d="M1820 1670 c0 -5 7 -10 16 -10 8 0 12 5 9 10 -3 6 -10 10 -16 10 -5
0 -9 -4 -9 -10z"/>
<path d="M1790 1660 c-9 -6 -10 -10 -3 -10 6 0 15 5 18 10 8 12 4 12 -15 0z"/>
<path d="M1467 1449 c7 -7 15 -10 18 -7 3 3 -2 9 -12 12 -14 6 -15 5 -6 -5z"/>
<path d="M3937 1939 c-9 -5 -22 -7 -27 -4 -6 3 -10 -1 -10 -10 0 -13 -6 -16
-25 -11 -14 4 -25 3 -25 -2 0 -5 -19 -6 -42 -2 -57 8 -145 2 -170 -11 -15 -8
-19 -8 -14 0 4 6 2 11 -4 11 -6 0 -13 -7 -16 -15 -4 -8 -12 -15 -19 -15 -7 0
-15 -10 -18 -22 l-6 -21 -18 20 c-10 12 -29 25 -43 29 -23 6 -24 6 -10 -11 14
-17 13 -18 -2 -12 -21 8 -88 -18 -67 -26 8 -3 4 -6 -10 -6 -18 -1 -21 -4 -13
-14 6 -7 10 -22 8 -32 -2 -11 3 -34 11 -52 7 -18 13 -64 13 -103 l0 -70 53 5
c83 9 147 26 147 40 0 8 11 12 31 10 17 -1 52 2 77 8 34 7 47 6 50 -2 3 -9 7
-9 18 0 11 9 20 8 39 -5 14 -9 25 -12 25 -6 0 12 97 5 115 -10 10 -8 13 22 14
156 2 191 -6 216 -62 183z"/>
<path d="M2670 1900 c8 -5 20 -10 25 -10 6 0 3 5 -5 10 -8 5 -19 10 -25 10 -5
0 -3 -5 5 -10z"/>
<path d="M2735 1903 c-11 -3 -28 -12 -37 -20 -9 -8 -22 -12 -27 -8 -6 3 -11 2
-11 -4 0 -6 -21 -9 -47 -9 -27 1 -47 -2 -46 -8 1 -5 -11 -9 -27 -10 -25 -1
-27 1 -17 17 6 9 18 18 26 18 50 3 60 6 51 15 -5 5 -27 3 -57 -7 -94 -30 -96
-30 -88 -17 5 8 3 11 -6 8 -8 -3 -13 -11 -11 -17 1 -7 -2 -10 -8 -6 -5 3 -18
1 -27 -4 -14 -8 -15 -10 -3 -11 13 0 13 -2 0 -9 -8 -6 -18 -7 -22 -5 -11 7
-10 -8 2 -26 7 -11 5 -17 -8 -21 -14 -6 -13 -8 8 -17 20 -8 21 -11 6 -11 -15
-1 -16 -4 -6 -16 11 -14 15 -13 27 5 13 18 21 20 55 15 27 -5 38 -4 34 3 -4 7
4 8 25 2 18 -5 36 -7 40 -4 16 10 79 14 79 5 0 -5 -18 -12 -40 -16 -58 -10
-100 -33 -119 -66 -12 -21 -21 -27 -36 -23 l-20 5 20 -16 c16 -13 31 -15 70
-10 49 7 76 8 165 5 25 0 69 2 99 5 29 4 51 3 48 -2 -3 -4 15 -9 40 -11 24 -1
55 -10 69 -18 29 -19 90 -13 132 13 15 9 28 18 30 19 1 1 4 16 7 34 3 24 -1
37 -13 46 -9 7 -13 16 -9 20 4 5 12 2 16 -5 7 -11 19 -7 55 18 43 30 58 51 36
51 -5 0 -10 7 -10 15 0 21 -40 35 -85 29 -25 -3 -41 1 -52 12 -16 15 -17 15
-24 -2 -6 -18 -6 -18 -10 0 -4 22 -19 25 -127 31 -40 2 -85 6 -100 8 -15 3
-36 3 -47 0z m-240 -53 c-3 -5 -10 -10 -16 -10 -5 0 -9 5 -9 10 0 6 7 10 16
10 8 0 12 -4 9 -10z m20 -60 c3 -5 1 -10 -4 -10 -6 0 -11 5 -11 10 0 6 2 10 4
10 3 0 8 -4 11 -10z m430 -10 c3 -5 2 -10 -4 -10 -5 0 -13 5 -16 10 -3 6 -2
10 4 10 5 0 13 -4 16 -10z m96 -16 c17 -8 29 -17 27 -19 -6 -6 -98 18 -98 27
0 13 39 9 71 -8z"/>
<path d="M3975 1570 c-3 -5 1 -10 10 -10 9 0 13 5 10 10 -3 6 -8 10 -10 10 -2
0 -7 -4 -10 -10z"/>
<path d="M2985 1010 c3 -5 8 -10 11 -10 2 0 4 5 4 10 0 6 -5 10 -11 10 -5 0
-7 -4 -4 -10z"/>
<path d="M847 947 c-4 -10 2 -13 20 -9 18 3 21 7 11 13 -18 12 -25 11 -31 -4z"/>
</g>
</svg>
